<?xml version="1.0" standalone="no"?><!DOCTYPE svg PUBLIC "-//W3C//DTD SVG 1.1//EN" "http://www.w3.org/Graphics/SVG/1.1/DTD/svg11.dtd"><svg t="1634040409714" class="icon" viewBox="0 0 1024 1024" version="1.1" xmlns="http://www.w3.org/2000/svg" p-id="7782" xmlns:xlink="http://www.w3.org/1999/xlink" width="200" height="200"><defs><style type="text/css"></style></defs><path d="M772.07 428.47c0.25-4.4 0.39-8.82 0.39-13.28 0-127.18-102.84-230.28-229.71-230.28s-229.71 103.1-229.71 230.28c0 0.67 0.02 1.33 0.03 2a213.156 213.156 0 0 0-38.91-3.58c-117.2 0-212.21 95.25-212.21 212.74 0 117.49 95.01 212.74 212.21 212.74 2.94 0 5.86-0.08 8.77-0.2 2.54 0.13 5.09 0.2 7.66 0.2h189.14v-179.1l-44.19 44.19c-10.38 10.38-27.2 10.38-37.58 0s-10.38-27.2 0-37.58l92.15-92.15c0.84-1.17 1.76-2.31 2.81-3.36 5.26-5.26 12.17-7.84 19.07-7.77 6.89-0.07 13.81 2.51 19.07 7.77 1.05 1.05 1.97 2.19 2.81 3.36l92.15 92.15c10.38 10.38 10.38 27.2 0 37.58-10.38 10.38-27.2 10.38-37.58 0l-44.19-44.19V839.1h213.68c2.82 0 5.61-0.09 8.39-0.24 108.96-5.16 195.72-95.13 195.72-205.36 0.02-108.31-83.72-197.05-189.97-205.03z" p-id="7783"></path></svg>