<?xml version="1.0" standalone="no"?><!DOCTYPE svg PUBLIC "-//W3C//DTD SVG 1.1//EN" "http://www.w3.org/Graphics/SVG/1.1/DTD/svg11.dtd"><svg t="1634040106663" class="icon" viewBox="0 0 1024 1024" version="1.1" xmlns="http://www.w3.org/2000/svg" p-id="5493" xmlns:xlink="http://www.w3.org/1999/xlink" width="200" height="200"><defs><style type="text/css"></style></defs><path d="M944.992 200.384c8.256 0 15.04 6.848 15.008 15.296v30.624c0 8.448-6.72 15.296-15.04 15.296h-18.144a21.984 21.984 0 0 0-19.584 14.624l-10.368 25.6a22.304 22.304 0 0 0 3.52 24.352l12.864 13.024a15.52 15.52 0 0 1 0 21.664l-21.376 21.632a14.944 14.944 0 0 1-21.312 0l-12.8-13.024a21.44 21.44 0 0 0-24-3.52l-25.28 10.528a22.144 22.144 0 0 0-14.4 19.84v18.304a15.264 15.264 0 0 1-15.104 15.296h-30.144a15.264 15.264 0 0 1-15.104-15.296v-18.304a22.08 22.08 0 0 0-14.4-19.84l-25.344-10.56a21.312 21.312 0 0 0-23.904 3.52l-12.864 13.056a14.944 14.944 0 0 1-21.344 0l-21.344-21.632a15.52 15.52 0 0 1 0-21.664l12.832-13.024a22.208 22.208 0 0 0 3.552-24.32l-10.432-25.632a21.952 21.952 0 0 0-19.52-14.656h-18.112a15.2 15.2 0 0 1-15.104-15.296V215.68c0-8.448 6.784-15.296 15.104-15.296h18.08c8.32 0 17.12-6.56 19.584-14.624l10.4-25.664a22.176 22.176 0 0 0-3.52-24.32l-12.832-13.056a15.456 15.456 0 0 1 0-21.632l21.312-21.632a14.944 14.944 0 0 1 21.344 0l12.864 13.056c5.888 5.92 16.64 7.552 23.936 3.584l25.28-10.528a22.112 22.112 0 0 0 14.4-19.872v-18.368c0-8.416 6.816-15.328 15.136-15.328h30.144c8.288 0 15.104 6.912 15.104 15.328v18.368c0 8.416 6.528 17.344 14.4 19.84l25.248 10.56a21.44 21.44 0 0 0 24-3.584l12.864-13.024a14.944 14.944 0 0 1 21.344 0l21.376 21.664a15.488 15.488 0 0 1 0 21.632l-12.864 13.024a22.144 22.144 0 0 0-3.52 24.32l10.336 25.632a21.92 21.92 0 0 0 19.584 14.624h18.144zM800.32 163.36a74.528 74.528 0 0 0-75.456 0 76.736 76.736 0 0 0-37.728 66.24c0 20.32 7.968 39.776 22.112 54.144a74.88 74.88 0 0 0 53.344 22.4 74.88 74.88 0 0 0 53.344-22.4c14.144-14.336 22.08-33.824 22.08-54.08 0-27.392-14.368-52.64-37.696-66.304z m147.552 251.264a478.08 478.08 0 0 1 12.032 106.816c0 259.84-207.744 470.56-463.936 470.56C239.648 992 32 781.28 32 521.44 32 261.536 239.68 50.784 495.936 50.784c21.824 0 43.264 1.536 64.32 4.48a186.912 186.912 0 0 0-17.376 68.864 134.112 134.112 0 0 0-16-6.048v114.112a259.776 259.776 0 0 0 0 7.072V301.76h8.64c5.984 22.336 14.944 43.424 26.4 62.816h-34.976v125.6h184.896v-0.768c8.512 12.16 13.728 19.296 13.728 19.296s6.4-8.864 16.896-24.032c10.208 1.312 20.576 2.016 31.136 2.048l0.128 3.392h123.136a414.336 414.336 0 0 0-3.968-34.048 248.544 248.544 0 0 0 54.944-41.44zM211.616 232.992a408.32 408.32 0 0 0-54.72 68.864h92.736c18.08-57.696 42.944-108.16 72.928-148.576a402.56 402.56 0 0 0-110.944 79.712z m-86.976 131.584a407.264 407.264 0 0 0-29.632 125.536h123.264c1.664-43.84 6.848-85.856 15.168-125.536h-108.8z m-29.696 188.32c3.264 43.2 13.216 85.344 29.696 125.408h108.736a758.56 758.56 0 0 1-15.168-125.408H94.944z m116.672 256.96A398.656 398.656 0 0 0 322.56 889.6c-29.92-40.32-54.784-90.912-72.864-148.512H156.992a413.76 413.76 0 0 0 54.624 68.8z m253.376 114.912h-0.064v-183.68h-150.08c10.464 29.568 22.88 56.64 37.28 80.864 20.768 35.264 45.344 63.488 71.04 81.824a142.72 142.72 0 0 0 41.824 20.992z m0-246.464v-125.408H280c1.856 43.2 7.392 85.344 16.704 125.408h168.256z m0-188.192v-125.536H296.736a688.992 688.992 0 0 0-16.704 125.536h184.96zM314.88 301.856h150.144v-183.68a140.128 140.128 0 0 0-41.824 20.992c-25.696 18.4-50.272 46.624-71.04 81.824-14.4 24.224-26.88 51.36-37.248 80.864z m211.968 251.04v125.408h168.192a676.48 676.48 0 0 0 16.704-125.408h-184.896z m41.76 350.88c25.76-18.336 50.272-46.56 71.2-81.824 14.304-24.192 26.784-51.296 37.12-80.864h-150.08v183.68a142.4 142.4 0 0 0 41.76-20.992z m211.52-93.92c20.8-21.12 39.072-44.032 54.72-68.768h-92.704c-18.144 57.6-42.88 108.16-72.928 148.48a397.312 397.312 0 0 0 110.944-79.68z m87.04-131.552c16.512-40.064 26.4-82.208 29.664-125.408h-123.136a758.464 758.464 0 0 1-15.36 125.408h108.864z" p-id="5494"></path></svg>