<?xml version="1.0" standalone="no"?><!DOCTYPE svg PUBLIC "-//W3C//DTD SVG 1.1//EN" "http://www.w3.org/Graphics/SVG/1.1/DTD/svg11.dtd"><svg class="icon" width="200px" height="200.00px" viewBox="0 0 1024 1024" version="1.1" xmlns="http://www.w3.org/2000/svg"><path d="M884.1 130.6H140.4c-41.9 0-76 34.1-76 76v613.2c0 41.9 34.1 76 76 76h743.7c41.9 0 76-34.1 76-76V206.6c0-41.9-34.1-76-76-76z m0 693.2H140.4c-2.2 0-4-1.8-4-4V310.1h751.7v509.7c0 2.2-1.8 4-4 4zM320.3 408.3c-14-14.1-36.8-14.2-50.9-0.2-14.1 14-14.2 36.8-0.2 50.9l105.3 106-105.3 106c-14 14.1-13.9 36.9 0.2 50.9 7 7 16.2 10.5 25.4 10.5 9.3 0 18.5-3.5 25.5-10.6l130.5-131.3c13.9-14 13.9-36.7 0-50.7L320.3 408.3zM729.6 616H526.1c-19.9 0-36 16.1-36 36s16.1 36 36 36h203.5c19.9 0 36-16.1 36-36s-16.1-36-36-36z" /></svg>
